<?xml version="1.0" standalone="no"?>
<!DOCTYPE svg PUBLIC "-//W3C//DTD SVG 20010904//EN"
 "http://www.w3.org/TR/2001/REC-SVG-20010904/DTD/svg10.dtd">
<svg version="1.0" xmlns="http://www.w3.org/2000/svg"
 width="700.000000pt" height="700.000000pt" viewBox="0 0 700.000000 700.000000"
 preserveAspectRatio="xMidYMid meet">
<metadata>
Created by potrace 1.14, written by Peter Selinger 2001-2017
</metadata>
<g transform="translate(0.000000,700.000000) scale(0.100000,-0.100000)"
fill="#000000" stroke="none">
<path d="M3339 6996 c-2 -2 -33 -7 -69 -10 -77 -7 -244 -47 -350 -83 -83 -28
-285 -121 -340 -157 -19 -12 -55 -36 -80 -52 -151 -98 -327 -266 -448 -429
-144 -194 -258 -458 -288 -670 -3 -22 -10 -60 -14 -85 -21 -117 2 -451 42
-605 10 -41 16 -63 24 -104 16 -80 146 -444 165 -465 5 -6 9 -15 9 -22 0 -28
194 -422 315 -639 37 -66 81 -145 98 -175 96 -174 547 -908 750 -1223 29 -45
75 -118 102 -162 27 -44 69 -108 92 -143 24 -35 43 -65 43 -67 0 -2 22 -38 48
-79 l49 -76 69 110 c38 61 189 300 336 533 375 594 612 984 738 1212 18 33 55
101 82 150 136 245 303 612 377 827 200 582 191 1029 -31 1463 -224 437 -656
777 -1148 900 -52 13 -117 27 -145 31 -27 3 -54 8 -59 11 -9 6 -361 14 -367 9z
m223 -1170 c193 -19 379 -161 461 -351 10 -22 24 -71 32 -110 74 -361 -205
-700 -573 -696 -71 1 -82 2 -152 21 -126 33 -279 149 -344 263 -86 148 -103
331 -47 492 59 168 209 312 377 361 57 17 159 32 179 28 6 -2 36 -5 67 -8z"/>
<path d="M2465 2215 c-5 -2 -62 -18 -124 -35 -311 -87 -643 -244 -830 -395
-35 -28 -162 -154 -189 -188 -103 -127 -160 -275 -163 -422 -6 -385 371 -747
1009 -969 89 -31 258 -80 310 -91 9 -2 46 -10 82 -18 36 -9 85 -18 110 -22 25
-3 61 -10 80 -15 19 -5 60 -11 90 -14 30 -4 66 -8 80 -11 202 -35 841 -42
1040 -11 14 2 52 7 85 10 217 23 537 95 750 168 339 117 592 263 775 448 91
91 97 99 148 186 166 282 116 579 -141 843 -197 202 -537 384 -925 495 -195
56 -171 60 -232 -36 -29 -46 -62 -99 -75 -118 -110 -172 -195 -310 -197 -320
-3 -13 2 -15 103 -30 97 -14 317 -73 454 -121 521 -182 651 -393 361 -591
-148 -101 -428 -209 -741 -284 -64 -15 -152 -33 -200 -40 -22 -3 -47 -7 -55
-9 -8 -2 -46 -7 -85 -11 -38 -3 -79 -8 -89 -10 -124 -23 -695 -23 -826 0 -14
3 -52 8 -85 11 -33 3 -67 8 -75 10 -8 2 -37 6 -64 10 -27 3 -52 8 -55 10 -3 1
-22 6 -42 9 -129 20 -409 101 -563 162 -491 196 -564 402 -213 602 102 59 308
141 452 182 110 31 153 42 175 46 13 3 55 12 93 20 37 8 78 14 90 14 56 1 52
10 -115 276 -151 239 -175 269 -203 259z"/>
</g>
</svg>
